<?xml version="1.0" encoding="UTF-8" standalone="no"?>
<!DOCTYPE svg PUBLIC "-//W3C//DTD SVG 1.1//EN" "http://www.w3.org/Graphics/SVG/1.1/DTD/svg11.dtd">
<!-- Created with Inkscape (http://www.inkscape.org/) -->

<svg
   xmlns:svg="http://www.w3.org/2000/svg"
   xmlns="http://www.w3.org/2000/svg"
   xmlns:xlink="http://www.w3.org/1999/xlink"
   version="1.1"
   width="537.94183"
   height="539.90863"
   id="svg6534"
   preserveAspectRatio="X200Y200 meet"
   >
  <defs
     id="defs6536">
    <filter
       x="-0.012963847"
       y="-0.21167447"
       width="1.0259277"
       height="1.4233489"
       color-interpolation-filters="sRGB"
       id="filter7272">
      <feGaussianBlur
         id="feGaussianBlur7274"
         stdDeviation="1.3586542" />
    </filter>
    <filter
       x="-0.012963847"
       y="-0.21167447"
       width="1.0259277"
       height="1.4233489"
       color-interpolation-filters="sRGB"
       id="filter7276">
      <feGaussianBlur
         id="feGaussianBlur7278"
         stdDeviation="1.3586542" />
    </filter>
  </defs>
  <g
     transform="translate(-78,33), scale(0.8)"
     id="layer3"
     style="display:inline"> 
    <path n="reflection"
       d="M 565.45523,362.63603 C 481.61257,381.11769 397.76991,381.69222 313.92725,361.1208"
       id="path7235"
       style="fill:none;stroke:#ffffff;stroke-width:2;stroke-linecap:butt;stroke-linejoin:miter;stroke-miterlimit:4;stroke-opacity:1;stroke-dasharray:none;filter:url(#filter7272)" />
    <path n="reflection"
       d="m 565.45523,367.43425 c -83.84266,18.48166 -167.68532,19.05619 -251.52798,-1.51523"
       id="path7233"
       style="fill:none;stroke:#ffffff;stroke-width:2;stroke-linecap:butt;stroke-linejoin:miter;stroke-miterlimit:4;stroke-opacity:1;stroke-dasharray:none;filter:url(#filter7276)" />  
    <text x="356" y="496" fill="#FFFFFF" stroke="#FFFFFF" stroke-width="0.5" stroke-miterlimit="10" font-family="sans-serif" font-size="28">2 MIN TURN</text>
    <text x="295.46774" y="225.35342" style="text-anchor:middle;" fill="#FFFFFF" stroke="#FFFFFF" stroke-width="0.5" stroke-miterlimit="10" font-family="sans-serif" font-size="31">L</text>
    <text x="575.61615" y="225.35342" style="text-anchor:middle;" fill="#FFFFFF" stroke="#FFFFFF" stroke-width="0.5" stroke-miterlimit="10" font-family="sans-serif" font-size="31">R</text>
    <polygon fill="#FFFFFF" stroke="#B2B2B2" stroke-width="0.5" stroke-miterlimit="10" points="420,80 435,90 450,80 450,60 420,60" />
    <polygon fill="#FFFFFF" stroke="#B2B2B2" stroke-width="0.5" stroke-miterlimit="10" points="425,60 435,50 445,60 445,80 425,80" transform="translate(79,30) rotate(20 435 50)"/>
    <polygon fill="#FFFFFF" stroke="#B2B2B2" stroke-width="0.5" stroke-miterlimit="10" points="425,60 435,50 445,60 445,80 425,80" transform="translate(-79,30) rotate(-20 435 50)"/>
  </g>
</svg>
