<?xml version="1.0" encoding="UTF-8" standalone="no"?>
<!-- Created with Inkscape (http://www.inkscape.org/) -->

<svg
   xmlns:dc="http://purl.org/dc/elements/1.1/"
   xmlns:cc="http://creativecommons.org/ns#"
   xmlns:rdf="http://www.w3.org/1999/02/22-rdf-syntax-ns#"
   xmlns:svg="http://www.w3.org/2000/svg"
   xmlns="http://www.w3.org/2000/svg"
   xmlns:xlink="http://www.w3.org/1999/xlink"
   xmlns:sodipodi="http://sodipodi.sourceforge.net/DTD/sodipodi-0.dtd"
   xmlns:inkscape="http://www.inkscape.org/namespaces/inkscape"
   version="1.1"
   width="537.94183"
   height="539.90863"
   id="svg6534"
   preserveAspectRatio="X200Y200 meet"
   inkscape:version="0.48.4 r9939"
   sodipodi:docname="turn_coordinator_mechanics.svg">
  <metadata
     id="metadata3101">
    <rdf:RDF>
      <cc:Work
         rdf:about="">
        <dc:format>image/svg+xml</dc:format>
        <dc:type
           rdf:resource="http://purl.org/dc/dcmitype/StillImage" />
      </cc:Work>
    </rdf:RDF>
  </metadata>
  <sodipodi:namedview
     pagecolor="#ffffff"
     bordercolor="#666666"
     borderopacity="1"
     objecttolerance="10"
     gridtolerance="10"
     guidetolerance="10"
     inkscape:pageopacity="0"
     inkscape:pageshadow="2"
     inkscape:window-width="728"
     inkscape:window-height="480"
     id="namedview3099"
     showgrid="false"
     inkscape:zoom="0.437111"
     inkscape:cx="268.97092"
     inkscape:cy="269.95432"
     inkscape:window-x="448"
     inkscape:window-y="44"
     inkscape:window-maximized="0"
     inkscape:current-layer="svg6534" />
  <defs
     id="defs6536">
    <linearGradient
       id="linearGradient7398">
      <stop
         id="stop7400"
         style="stop-color:#a8a8a8;stop-opacity:1"
         offset="0" />
      <stop
         id="stop7402"
         style="stop-color:#515151;stop-opacity:1"
         offset="1" />
    </linearGradient>
    <linearGradient
       id="linearGradient7376">
      <stop
         id="stop7378"
         style="stop-color:#1d1d1d;stop-opacity:1"
         offset="0" />
      <stop
         id="stop7380"
         style="stop-color:#acacac;stop-opacity:1"
         offset="1" />
    </linearGradient>
    <linearGradient
       id="linearGradient7357">
      <stop
         id="stop7359"
         style="stop-color:#222222;stop-opacity:1"
         offset="0" />
      <stop
         id="stop7361"
         style="stop-color:#888888;stop-opacity:1"
         offset="1" />
    </linearGradient>
    <linearGradient
       id="linearGradient7280">
      <stop
         id="stop7282"
         style="stop-color:#989898;stop-opacity:1"
         offset="0" />
      <stop
         id="stop7284"
         style="stop-color:#161616;stop-opacity:1"
         offset="1" />
    </linearGradient>
    <filter
       x="-0.012963847"
       y="-0.21167447"
       width="1.0259277"
       height="1.4233489"
       color-interpolation-filters="sRGB"
       id="filter7272">
      <feGaussianBlur
         id="feGaussianBlur7274"
         stdDeviation="1.3586542" />
    </filter>
    <filter
       x="-0.012963847"
       y="-0.21167447"
       width="1.0259277"
       height="1.4233489"
       color-interpolation-filters="sRGB"
       id="filter7276">
      <feGaussianBlur
         id="feGaussianBlur7278"
         stdDeviation="1.3586542" />
    </filter>
    <filter
       x="-0.025320208"
       y="-0.4602949"
       width="1.0506403"
       height="1.9205898"
       color-interpolation-filters="sRGB"
       id="filter7296">
      <feGaussianBlur
         id="feGaussianBlur7298"
         stdDeviation="2.5395566" />
    </filter>
    <filter
       color-interpolation-filters="sRGB"
       id="filter7320">
      <feGaussianBlur
         id="feGaussianBlur7322"
         stdDeviation="1.560427" />
    </filter>
    <filter
       x="-0.037216581"
       y="-1.1012783"
       width="1.0744332"
       height="3.2025566"
       color-interpolation-filters="sRGB"
       id="filter7332">
      <feGaussianBlur
         id="feGaussianBlur7334"
         stdDeviation="0.42103338" />
    </filter>
    <filter
       x="-0.03657512"
       y="-2.2894466"
       width="1.0731502"
       height="5.5788932"
       color-interpolation-filters="sRGB"
       id="filter7336">
      <feGaussianBlur
         id="feGaussianBlur7338"
         stdDeviation="0.37260582" />
    </filter>
    <filter
       color-interpolation-filters="sRGB"
       id="filter7340">
      <feGaussianBlur
         id="feGaussianBlur7342"
         stdDeviation="12.323861" />
    </filter>
    <filter
       x="-1.5192107"
       y="-0.16643283"
       width="4.0384216"
       height="1.3328657"
       color-interpolation-filters="sRGB"
       id="filter7344">
      <feGaussianBlur
         id="feGaussianBlur7346"
         stdDeviation="2.4271454" />
    </filter>
    <filter
       x="-0.15478399"
       y="-0.095661767"
       width="1.309568"
       height="1.1913235"
       color-interpolation-filters="sRGB"
       id="filter7390">
      <feGaussianBlur
         id="feGaussianBlur7392"
         stdDeviation="2.6718665" />
    </filter>
    <radialGradient
       cx="436.2619"
       cy="383.55603"
       r="21.234371"
       fx="436.2619"
       fy="383.55603"
       id="radialGradient7450"
       xlink:href="#linearGradient7280"
       gradientUnits="userSpaceOnUse"
       gradientTransform="matrix(0.99962961,0.03151084,-0.03165606,1.3463234,12.30346,-151.54305)" />
    <linearGradient
       x1="405.10495"
       y1="100.92"
       x2="429.60284"
       y2="491.39627"
       id="linearGradient7457"
       xlink:href="#linearGradient7376"
       gradientUnits="userSpaceOnUse"
       gradientTransform="matrix(1.0317265,0,0,1.0317265,-10.411468,-40.920085)" />
    <linearGradient
       x1="330.24167"
       y1="125.12653"
       x2="460.05554"
       y2="575.40216"
       id="linearGradient7460"
       xlink:href="#linearGradient7357"
       gradientUnits="userSpaceOnUse"
       gradientTransform="matrix(1.0046481,0,0,1.0046481,1.2957406,-32.018626)" />
    <linearGradient
       x1="346.57809"
       y1="73.12307"
       x2="545.03467"
       y2="529.28961"
       id="linearGradient7498"
       xlink:href="#linearGradient7398"
       gradientUnits="userSpaceOnUse"
       gradientTransform="matrix(0.99470475,0,0,0.99470475,2.5803031,1.3941645)" />
    <filter
       x="-0.027712595"
       y="-0.1791476"
       width="1.0554252"
       height="1.3582952"
       color-interpolation-filters="sRGB"
       id="filter3669">
      <feGaussianBlur
         id="feGaussianBlur3671"
         stdDeviation="3.4406603" />
    </filter>
  </defs>
  <g
     transform="translate(-78,33), scale(0.8)"
     id="layer3"
     style="display:inline">
    <!--
    <path
       d="m 696.90144,298.23878 c 0,144.28485 -116.96598,261.25084 -261.25083,261.25084 -144.28485,0 -261.25084,-116.96599 -261.25084,-261.25084 0,-144.28486 116.96599,-261.250835 261.25084,-261.250835 144.28485,0 261.25083,116.965975 261.25083,261.250835 z m -10.10301,0 c 0,138.70511 -112.44272,251.14782 -251.14782,251.14782 -138.70511,0 -251.14782,-112.44271 -251.14782,-251.14782 0,-138.70511 112.44271,-251.147823 251.14782,-251.147823 138.7051,0 251.14782,112.442713 251.14782,251.147823 z"
       id="path7394"
       style="fill:url(#linearGradient7498);fill-opacity:1;fill-rule:evenodd;stroke:#262626;stroke-width:3;stroke-miterlimit:4;stroke-opacity:1;stroke-dasharray:none" />
    -->
    <!-- Glass background -->
    <path
       d="m 589.56061,345.52822 c 6.00401,3.72566 -12.18555,52.58809 -16.16244,60.14358 l -137.75312,32.10149 -131.52389,-28.06088 -15.27484,-62.04133 300.71429,-2.14286 z"
       id="rect7294"
       style="fill:#c1c2a9;fill-opacity:1;fill-rule:evenodd;stroke:none" />
    <path
       d="m 422.49578,368.30507 0.89439,0.70614 c 8.83169,0.30103 17.41075,0.26525 25.80997,-0.0103 l 0.44698,-0.38853"
       id="path7324"
       style="fill:none;stroke:#000000;stroke-width:3;stroke-linecap:butt;stroke-linejoin:miter;stroke-miterlimit:4;stroke-opacity:0.53266332;stroke-dasharray:none;filter:url(#filter7332)" />
    <!-- Circles -->
    <!-- Inner circle plate -->
    <path
       d="m 435.64988,123.75143 c -96.3635,0 -174.46875,78.1365 -174.46875,174.5 0,96.3635 78.10525,174.46875 174.46875,174.46875 96.3635,0 174.46875,-78.10525 174.46875,-174.46875 0,-96.3635 -78.10525,-174.5 -174.46875,-174.5 z m -127.75,230.28125 c 2.93053,-0.0399 6.74284,0.86595 10.84375,1.78125 38.73558,8.64556 91.06394,11.90625 116.90625,11.90625 25.84231,0 78.17067,-3.26069 116.90625,-11.90625 9.37351,-2.09211 17.16128,-4.12165 16.6875,5.0625 -0.8315,16.11858 1.45844,35.07601 -14.15625,40.40625 -36.57226,12.48432 -98.952,15.65625 -119.4375,15.65625 -20.4855,0 -82.86524,-3.17193 -119.4375,-15.65625 -15.61469,-5.33024 -13.32475,-24.28767 -14.15625,-40.40625 -0.2665,-5.16608 2.07592,-6.79242 5.84375,-6.84375 z"
       id="path7226"
       style="fill:#232323;fill-opacity:1;stroke:none" />
    <!-- outer circle -->
    <path
       d="m 594.24456,298.23878 c 0,87.58902 -71.00493,158.59395 -158.59394,158.59395 -87.58902,0 -158.59395,-71.00493 -158.59395,-158.59395 0,-87.58902 71.00493,-158.59395 158.59395,-158.59395 87.58901,0 158.59394,71.00493 158.59394,158.59395 z m 70.71068,0 c 0,126.64145 -102.66318,229.30463 -229.30462,229.30463 -126.64145,0 -229.30463,-102.66318 -229.30463,-229.30463 0,-126.64145 102.66318,-229.304622 229.30463,-229.304622 126.64144,0 229.30462,102.663172 229.30462,229.304622 z"
       id="path7313"
       transform="scale(1.1,1.1) translate(-39.5,-27)"
       style="fill:#232323;fill-opacity:1;fill-rule:evenodd;stroke:none" />
    <!-- Circles end -->
    <!-- T/C turn rate markings -->
    <!-- T/C markings end -->
    <!-- Glass markings -->
    <path
       d="m 458.52052,416.17411 c 1.89517,-16.28871 2.14229,-32.57742 0,-48.86613 m -45.73981,48.86613 c -1.89517,-16.28871 -2.14229,-32.57742 0,-48.86613"
       id="path7223"
       style="fill:none;stroke:#262626;stroke-width:3;stroke-linecap:butt;stroke-linejoin:miter;stroke-miterlimit:4;stroke-opacity:1;stroke-dasharray:none" />
    <path
       d="m 324.17807,362.166 c -2.80164,11.19048 -4.52044,23.80952 -3.57142,35"
       id="path7258"
       style="opacity:0.2;fill:none;stroke:#000000;stroke-width:5;stroke-linecap:round;stroke-linejoin:miter;stroke-miterlimit:4;stroke-opacity:1;stroke-dasharray:none;filter:url(#filter7344)" />
    <path
       d="m 565.45523,367.43425 c -83.84266,18.48166 -167.68532,19.05619 -251.52798,-1.51523"
       id="path7233"
       style="fill:none;stroke:#ffffff;stroke-width:2;stroke-linecap:butt;stroke-linejoin:miter;stroke-miterlimit:4;stroke-opacity:1;stroke-dasharray:none;filter:url(#filter7276)" />
    <path
       d="m 423.88521,415.22423 c 8.42293,0.54697 16.54539,0.493 24.44979,0.003"
       id="path7330"
       style="fill:none;stroke:#000000;stroke-width:3;stroke-linecap:butt;stroke-linejoin:miter;stroke-miterlimit:4;stroke-opacity:0.53266332;stroke-dasharray:none;filter:url(#filter7336)" />
    <!-- Markings end -->
     
  </g>
</svg>
